# xmcd
#
# Track frame offsets:
#	150
#	11801
#	22112
#	39523
#	53880
#	70645
#	80888
#	95166
#	108445
#	126569
#	140180
#	158157
#	171729
#	186341
#	204057
#	222787
#	234760
#	249076
#	263945
#	276799
#
# Disc length: 3919 seconds
#
# Revision: 0
# Processed by: cddbd v1.5.1PL2 Copyright (c) Steve Scherf et al.
# Submitted via: dBpowerAMP V4.0
#
DISCID=2a0f4d14
DTITLE=Domenico Modugno  - San Remo Con Amore
DYEAR=1900
DGENRE=
TTITLE0=Volare - Momenico Modugno
TTITLE1=24 Mila Baci - Adriano Celentano
TTITLE2=L Ultimo Romantico - Pino Donaggio
TTITLE3=Pique - Pepino Di Capri
TTITLE4=Le MIlle bolle Blue - Mina
TTITLE5=Non Dimenticare Le Mie Parole - Memo Bemigi
TTITLE6=I Giorni Dell Arcobaleno - Nicola Di Bari
TTITLE7=Non Pesare A Me - Iva Zanichi
TTITLE8=Vecchio Frack - Domenico Modugno
TTITLE9=E Se Domani - Loderana Perasso
TTITLE10=Vivro - Claudio Ferri
TTITLE11=Tintarella Di Luna - Mina
TTITLE12=La Prima Cosa Bella - Nicola Di Bari
TTITLE13=Ciao Cara Come Stai - Iva Zanichi
TTITLE14=Bella Da Morire - Homos Sapiens
TTITLE15=Quanto E Bella - Gianni Nazzaro
TTITLE16=Chi Non Lavora Non Fa L Amore - Gianni Galli
TTITLE17=L Avventura - Formula
TTITLE18=Gliocchi Miei - Dino
TTITLE19=Acqua Azzurre Acqua Chiara - Formula
EXTD=
EXTT0=
EXTT1=
EXTT2=
EXTT3=
EXTT4=
EXTT5=
EXTT6=
EXTT7=
EXTT8=
EXTT9=
EXTT10=
EXTT11=
EXTT12=
EXTT13=
EXTT14=
EXTT15=
EXTT16=
EXTT17=
EXTT18=
EXTT19=
PLAYORDER=
